# xmcd CD database file
#
# Track frame offsets:
#	150
#	24193
#	42571
#	56121
#	74297
#	92543
#	110018
#	120678
#	144715
#	166015
#	183789
#	205481
#	223854
#	239713
#	252922
#	272872
#	296043
#	303696
#	322885
#
# Disc length: 4553 seconds
#
# Revision: 2
# Processed by: cddbd v1.5.2PL0 Copyright (c) Steve Scherf et al.
# Submitted via: CDex 1.51
#
DISCID=2911c713
DTITLE=Various Artist - For Nihon [CDTwo)
DYEAR=2011
DGENRE=New Age
TTITLE0=This Time Tomorrow - Hollie Kenniff
TTITLE1=Near East - The American Dollar
TTITLE2=Roads - Joseph Minadeo
TTITLE3=Gold I - Bexar Bexar
TTITLE4=Opening - Ametsub
TTITLE5=Endalaus II - Olafur Arnalds
TTITLE6=Aussenseiter - Nils Frahm and Anne Müller
TTITLE7=Abandon Window - Jon Hopkins
TTITLE8=Dissolution - Rafael Anton Irisarri and Goldmund
TTITLE9=Sing The Same Song Twice - Helios
TTITLE10=Balcony Sunset - Ulrich Schnauss and Mark Peters
TTITLE11=For A Morning When - Taylor Deupree
TTITLE12=Is Otto Roessler Right? - Alva Noto
TTITLE13=Clamor - Balmorhea
TTITLE14=This Too - Near The Parenthesis
TTITLE15=Time Is Golden - Little Phrase
TTITLE16=Even Space - Ryan Teague
TTITLE17=2.4 Metres - Rob Simonsen
TTITLE18=Bach Mirror - Max Richter
EXTD=YEAR: 2011
EXTT0=
EXTT1=
EXTT2=
EXTT3=
EXTT4=
EXTT5=
EXTT6=
EXTT7=
EXTT8=
EXTT9=
EXTT10=
EXTT11=
EXTT12=
EXTT13=
EXTT14=
EXTT15=
EXTT16=
EXTT17=
EXTT18=
PLAYORDER=
